<svg width="21" height="21" viewBox="0 0 21 21" fill="none" xmlns="http://www.w3.org/2000/svg">
<circle cx="10.5" cy="10.5" r="10" fill="white" stroke="#767676"/>
<path d="M11.8418 6.24414C11.8418 6.52246 11.749 6.7373 11.5635 6.88867C11.3828 7.03516 11.1558 7.1084 10.8823 7.1084C10.6089 7.1084 10.3818 7.03516 10.2012 6.88867C10.0254 6.7373 9.9375 6.52246 9.9375 6.24414C9.9375 5.96094 10.0254 5.74609 10.2012 5.59961C10.3818 5.45312 10.6089 5.37988 10.8823 5.37988C11.1558 5.37988 11.3828 5.45312 11.5635 5.59961C11.749 5.74609 11.8418 5.96094 11.8418 6.24414ZM10.1279 8.44141H11.5928V16H10.1279V8.44141Z" fill="#767676"/>
</svg>
