<svg width="24" height="24" viewBox="0 0 24 24" fill="none" xmlns="http://www.w3.org/2000/svg">
<path d="M18.2759 6.50304C18.369 6.40808 18.4801 6.33265 18.6027 6.28115C18.7252 6.22965 18.8569 6.20312 18.9898 6.20312C19.1228 6.20312 19.2544 6.22965 19.377 6.28115C19.4996 6.33265 19.6106 6.40808 19.7037 6.50304C20.0937 6.89714 20.0992 7.53398 19.7173 7.9349L11.654 17.4669C11.5624 17.5674 11.4513 17.6482 11.3275 17.7044C11.2037 17.7605 11.0697 17.7907 10.9337 17.7933C10.7978 17.7958 10.6627 17.7706 10.5369 17.7192C10.411 17.6678 10.2969 17.5912 10.2017 17.4942L5.29522 12.5223C5.106 12.3293 5 12.0698 5 11.7995C5 11.5293 5.106 11.2698 5.29522 11.0768C5.38829 10.9818 5.49936 10.9064 5.62194 10.8549C5.74452 10.8034 5.87614 10.7769 6.0091 10.7769C6.14206 10.7769 6.27368 10.8034 6.39626 10.8549C6.51884 10.9064 6.62991 10.9818 6.72298 11.0768L10.8849 15.2946L18.2487 6.53304C18.2571 6.5225 18.2663 6.51248 18.2759 6.50304Z" fill="#474747"/>
</svg>
